<svg xmlns="http://www.w3.org/2000/svg" width="11.818" height="70" viewBox="0 0 11.818 70">
  <path id="Subtraction_7" data-name="Subtraction 7" d="M0,0H0V.708H5.064V28.669a8.2,8.2,0,0,0,.412,2.117,4.19,4.19,0,0,0,1.3,1.975l1.954,1.75-1.954,1.75a4.215,4.215,0,0,0-1.3,1.945,7.875,7.875,0,0,0-.407,2.148V67.28H0V68H6.174l.024-.012a3.491,3.491,0,0,0,.029-.489V42.052a9.775,9.775,0,0,1,.233-1.94,7.468,7.468,0,0,1,2.6-4.306,4.8,4.8,0,0,1,.758-.509V33.875a5.773,5.773,0,0,1-2.341-2.256,8.992,8.992,0,0,1-1.25-4.646V.49A3.451,3.451,0,0,0,6.2.032Z" transform="translate(10.818 69) rotate(180)" fill="#8491ff" stroke="#8491ff" stroke-width="2"/>
</svg>
