<svg xmlns="http://www.w3.org/2000/svg" width="11.818" height="70" viewBox="0 0 11.818 70">
  <path id="Subtraction_8" data-name="Subtraction 8" d="M0,68H0v-.708H5.064V39.331a8.2,8.2,0,0,1,.412-2.117,4.19,4.19,0,0,1,1.3-1.975l1.954-1.75-1.954-1.75a4.215,4.215,0,0,1-1.3-1.945,7.875,7.875,0,0,1-.407-2.148V.72H0V0H6.174L6.2.012A3.491,3.491,0,0,1,6.227.5V25.948a9.775,9.775,0,0,0,.233,1.94,7.468,7.468,0,0,0,2.6,4.306,4.8,4.8,0,0,0,.758.509v1.422a5.773,5.773,0,0,0-2.341,2.256,8.992,8.992,0,0,0-1.25,4.646V67.51a3.451,3.451,0,0,1-.027.458Z" transform="translate(1 1)" fill="#8491ff" stroke="#8491ff" stroke-width="2"/>
</svg>
