<svg xmlns="http://www.w3.org/2000/svg" width="278.954" height="48.172" viewBox="0 0 278.954 48.172">
  <g id="Group_78" data-name="Group 78" transform="translate(679.879 -425.909)">
    <path id="Path_89" data-name="Path 89" d="M-642.756,425.909a7.6,7.6,0,0,1,.477.673,3.453,3.453,0,0,0,3.181,1.808c8.191.485,15.982,2.407,23.006,6.839a24.867,24.867,0,0,1,7.389,6.919,15.3,15.3,0,0,1-.577,18.917,29.406,29.406,0,0,1-11.644,8.623,54.315,54.315,0,0,1-25.935,4.251,51.193,51.193,0,0,1-17.714-4.208,29.953,29.953,0,0,1-11.534-8.421c-4.908-6.121-5.029-13.491-.337-19.794a28.11,28.11,0,0,1,10.438-8.27,49.036,49.036,0,0,1,19.2-4.842,3.711,3.711,0,0,0,3.531-1.975,1.861,1.861,0,0,1,.26-.345A1.6,1.6,0,0,1-642.756,425.909Zm30.364,30.334.243-.184.145-.408c.1-.029.23-.026.288-.091,2.81-3.151,4.428-7.507,1.935-11.943a19.39,19.39,0,0,0-6.11-6.339.908.908,0,0,0-.668-.174,3.774,3.774,0,0,0-2.824,3.9c-.009,1.589,0,3.179,0,4.768v1.9c1.816-2.19,3.922-2.186,6.131-1.683.242.055.59.295.625.495.127.734.142,1.487.2,2.233l-.263.038a8.989,8.989,0,0,0-1.214-1.351,4.388,4.388,0,0,0-1.7-.835,1.578,1.578,0,0,0-1.964.932c-.239.752.19,1.495,1.168,1.933.757.338,1.548.6,2.3.942a3.5,3.5,0,0,1,2.314,4.345c-.052.318-.133.632-.2.948l-.144.406-.245.19-.306.339-.2.228-.707.278c-1.862.825-3.78.485-5.729.148v3.982a22.529,22.529,0,0,0,5.873-3.97l.544-.466.2-.223Zm-52.9-6.905a11.6,11.6,0,0,0,.948-.742c2.371-2.383,4.759-4.75,7.083-7.178a11.623,11.623,0,0,0,1.509-2.224c.349-.6.066-1.035-.543-1.276a3.265,3.265,0,0,1-.709-.254,4.02,4.02,0,0,1-.594-.647c.251-.152.5-.435.754-.439,2.276-.034,4.553-.029,6.829-.008a2.458,2.458,0,0,1,.761.28c-.173.237-.3.549-.527.7a18.623,18.623,0,0,0-2.489,1.517c-2.547,2.3-5.021,4.681-7.49,7.066-.236.228-.452.824-.324,1.027.941,1.5,1.971,2.947,2.974,4.411.352-3.665.387-3.773,3.108-5.938.494-.393.382-.747.261-1.226-.776-3.06.911-5.2,3.951-4.992a12.1,12.1,0,0,1,1.575.356c.669.138,1.343.255,2.124.4a19.382,19.382,0,0,1,.247,4.115c-.226-.131-.359-.162-.4-.238-.169-.357-.312-.727-.462-1.092a3.844,3.844,0,0,0-3.438-2.717c-1.007.015-1.685.528-1.56,1.508a6.217,6.217,0,0,0,.972,2.9c1.461,1.916,3.129,3.677,4.753,5.464a10.489,10.489,0,0,0,1.661,1.387.8.8,0,0,0,.733.074c1.214-.967.77-3.657-.665-4.208-.376-.144-.741-.315-1.111-.474l.068-.252h4.6c-.292.682-.587,1.272-.8,1.891-.345,1.02-.539,2.1-.976,3.077a1.226,1.226,0,0,0,.412,1.762,7.392,7.392,0,0,0,1.187.75c.821.362,1.344.027,1.346-.853.008-3.614.035-7.229-.022-10.843-.032-2.023-.637-3.788-2.754-4.611a1.17,1.17,0,0,1-.458-.282,5.441,5.441,0,0,1-.44-.669,2.326,2.326,0,0,1,.734-.285c1.7-.027,3.4-.062,5.092.012a1.981,1.981,0,0,1,1.221.668q7.036,7.962,14.029,15.962a5.736,5.736,0,0,0,.906.662,7.3,7.3,0,0,0,.146-.929q.011-6.126,0-12.253a2.513,2.513,0,0,0-1.654-2.335c-.618-.295-1.272-.517-1.879-.833-.215-.112-.337-.4-.5-.613.236-.119.469-.333.708-.339.9-.024,1.806.029,2.71.035,1.391.009,2.781,0,4.172,0l.095-.37c-1.156-.611-2.289-1.271-3.471-1.826a52.73,52.73,0,0,0-18.948-4.57,2.219,2.219,0,0,0-2.531,1.3,3.017,3.017,0,0,1-.506.593,4.986,4.986,0,0,1-.545-.749,1.941,1.941,0,0,0-2.3-1.137c-1.934.248-3.888.346-5.814.637a45.416,45.416,0,0,0-15.931,5.327c-.32.183-.619.4-1.128.735,1.8,0,3.317-.013,4.83.013a2.407,2.407,0,0,1,.743.282c-.19.227-.35.614-.574.656-1.548.289-1.766,1.424-1.775,2.684-.018,2.639-.009,5.277-.005,7.916C-665.363,448.424-665.327,448.738-665.29,449.338Zm45.077,12.391c-5.443-6.588-16.715-18.943-17.633-19.222v1.2q0,4.336,0,8.673c0,1.228-.018,2.458.03,3.686.1,2.525.744,3.341,3.109,4.152a8.077,8.077,0,0,1,1.208.651c-.288.342-.476.484-.665.486q-4.005.062-8.011.077a.632.632,0,0,1-.5-.309.651.651,0,0,1,.224-.545c.479-.381,1-.708,1.5-1.063a3.05,3.05,0,0,0,1.228-3.591,4.356,4.356,0,0,1-4.324-1.009c-.385-.307-.677-.541-1.217-.168a8.316,8.316,0,0,1-5.467,1.364c-1.151-.084-2.287-.381-3.565-.606,1.514,1.871,2.492,4.108,4.894,5.005.2.077.315.4.47.616a2.806,2.806,0,0,1-.76.239c-1.19.022-2.391-.092-3.57.027a2.558,2.558,0,0,1-2.643-1.237c-2.034-2.984-4.135-5.924-6.213-8.879a7.769,7.769,0,0,0-.855-1.116c-.148-.144-.584-.239-.695-.139-.854.77-1.751,1.52-1.711,2.857.041,1.372.007,2.746.009,4.119,0,2.047.312,2.49,2.165,3.264a9.9,9.9,0,0,1,1.178.688l-.128.34h-3.573l-.039.3a50.676,50.676,0,0,0,19.466,4.621A55.69,55.69,0,0,0-620.213,461.729Zm12.533-13.006c-.632,4.466-3.149,7.744-6.658,10.266a40.038,40.038,0,0,1-6.626,3.856,50.083,50.083,0,0,1-18.377,4.16,57.431,57.431,0,0,1-22.817-3.106,29.869,29.869,0,0,1-11.586-7,13.207,13.207,0,0,1-4.005-7.748c-.016-.133-.147-.252-.225-.377l-.306.044c0,1.033-.075,2.072.014,3.1a15.349,15.349,0,0,0,3.806,8.692,30.217,30.217,0,0,0,13.351,8.749,55.067,55.067,0,0,0,30.424,1.814,38.925,38.925,0,0,0,15.416-6.6c3.505-2.589,6.3-5.741,7.491-10.062A10.729,10.729,0,0,0-607.68,448.723Zm-62.185,10.539a18.117,18.117,0,0,0,.354-2.408c.03-5.308.047-10.617-.008-15.925a5.628,5.628,0,0,0-.678-2.227c-.246-.518-.72-.606-1.246-.161a17.079,17.079,0,0,0-4.639,5.645,8.65,8.65,0,0,0-.941,4.612C-676.55,453.482-673.61,456.495-669.864,459.262Zm24.413-5.25c-.469-.428-.779-.72-1.1-1-2.281-1.988-4.82-3.726-6.242-6.538-.254-.5-.667-.484-1.089-.174a2.571,2.571,0,0,0-1.01,2.587,7.661,7.661,0,0,0,5.938,5.9A5.38,5.38,0,0,0-645.452,454.012Zm26.116-2.96c-.417,2.037.69,3.63,1.813,5.138a2.283,2.283,0,0,0,2.586.632,1.661,1.661,0,0,0,1.214-1.387,1.473,1.473,0,0,0-.738-1.666c-.845-.482-1.744-.868-2.6-1.338C-617.807,452.018-618.524,451.546-619.336,451.052Zm-23.41-20.972-.412-.219,1.517-.966-1.045-1.278-1.411,1.1Z" fill="#e01f27"/>
    <path id="Path_90" data-name="Path 90" d="M-304.731,460.352c-3.362-1.509-3.559-1.355-3.743,1.949-.121,2.189-.488,4.432,2.807,4.37-.124.375-.176.676-.229.676-2.528.008-3.259,1.333-3.294,3.747a43.663,43.663,0,0,1-.982,8.077,10.84,10.84,0,0,1-1.94,4.025c-.279.383-1.542.05-2.355.045a12.892,12.892,0,0,1,.441-2.177c.341-.895,1.1-1.684,1.248-2.59.464-2.857.754-5.745,1.052-8.627.1-.936.415-2.206-1.221-2.1-1.361.089-3.3-.915-3.6,1.6-.393,3.327-.649,6.676-1.217,9.972a8.713,8.713,0,0,1-1.813,3.788c-.333.415-1.913.361-2.483-.068-.912-.686-.332-1.4.5-2.121a4.538,4.538,0,0,0,1.227-2.567c.441-2.678.639-5.395,1.041-8.08.254-1.694-.117-2.828-2.36-3.145,3.422-.476,2.914-3.251,3.673-5.244s1.706-3.867,3.968-4.493c1.508-.417,2.6.524,2.067,1.765-.178.415-1,.718-1.548.76-.462.036-.959-.382-1.44-.6-.387,1.758-.827,3.506-1.142,5.276-.182,1.028.155,1.7,1.441,1.716,2.037.031,3.572-.027,3.806-2.805a6.613,6.613,0,0,1,3.58-5.749c.735-.34,1.8.035,2.718.082C-304.592,458.634-304.656,459.423-304.731,460.352Z" transform="translate(-162.702 -14.291)" fill="#e01f27"/>
    <path id="Path_91" data-name="Path 91" d="M-370.414,458.465c3.865,0,7.758-.294,11.588.076,4.492.434,6.936,3.642,6.959,8.253.035,7.169-4.7,12-11.855,12.061-2.6.023-5.2,0-7.491,0a40.446,40.446,0,0,0,1.526-5.3c.514-3.494.686-7.037,1.185-10.533.277-1.941.039-3.409-2.264-4Zm15.373,8.975c-.466-5.271-2.9-8.222-7-8.118-1.695.043-2.733.745-2.936,2.515-.493,4.312-1.073,8.617-1.493,12.936-.234,2.4.823,3.354,3.227,3.086a6.735,6.735,0,0,0,5.539-3.464A63.6,63.6,0,0,0-355.04,467.44Z" transform="translate(-140.532 -14.772)" fill="#e01f27"/>
    <path id="Path_92" data-name="Path 92" d="M-515.632,468.779c4.6-.563,6.385-3.138,4.719-6.858a3.709,3.709,0,0,0-3.824-2.509c-1.911.175-2.006,1.768-2.148,3.258-.336,3.518-.667,7.036-1.076,10.545-.252,2.164-.31,4.17,2.191,5.347h-7.049a50.025,50.025,0,0,0,1.608-5.9,79.318,79.318,0,0,0,.958-10c.03-1.344-.876-2.71-1.488-4.44,3.258.144,7.018.071,10.705.55,2.724.354,3.971,2.165,4.1,4.661.149,2.824-1.012,4.838-3.683,5.632a28.166,28.166,0,0,1-5.048.588Z" transform="translate(-71.508 -14.71)" fill="#e01f27"/>
    <path id="Path_93" data-name="Path 93" d="M-489.888,476.059l-1.456,1.166c-.069-.278-.249-.578-.166-.751.309-.639.562-1.483,1.1-1.795a5.066,5.066,0,0,1,3.09-.946c.507.1.967,1.787.965,2.757a39.235,39.235,0,0,1-.64,4.562,18.84,18.84,0,0,0-.016,2.267l.559.284a9.265,9.265,0,0,0,1.871-1.953c1.059-2.089,1.842-4.32,2.922-6.4.321-.618,1.264-.912,1.921-1.354.234.648.726,1.324.657,1.938-.272,2.455-.719,4.891-1.191,7.907l2.879-1.362c-.849,2.181-2.03,3.766-4.19,3.445-2.438-.363-.692-2.782-1.539-4.1a24.121,24.121,0,0,1-3.272,3.454,3.675,3.675,0,0,1-2.987.418c-.488-.177-.729-1.7-.671-2.583.145-2.224.525-4.432.81-6.646Z" transform="translate(-85.753 -21.758)" fill="#e01f27"/>
    <path id="Path_94" data-name="Path 94" d="M-227.567,485.049c.36-2.311.824-4.6,1.045-6.912.214-2.236-.122-2.41-2.366-1.573.265-1.734,1.067-3.153,2.727-3.281.806-.063,1.709,1.128,2.855,1.958-.331.059-.1.089-.013-.008,1.518-1.606,3.322-2.941,5.49-1.753,2.13,1.168,1.5,3.447,1.307,5.424-.136,1.4-.23,2.813-.373,4.6l2.161-.882.306.4a9.256,9.256,0,0,1-1.934,2.012,3.065,3.065,0,0,1-2.5.312,2.964,2.964,0,0,1-.937-2.311c.041-1.8.555-3.6.529-5.4-.014-.988-.733-1.966-1.133-2.948-.862.671-2.177,1.175-2.5,2.045a33.384,33.384,0,0,0-1.536,6.577C-224.723,485.261-225.583,485.8-227.567,485.049Z" transform="translate(-205.332 -21.451)" fill="#e01f27"/>
    <path id="Path_95" data-name="Path 95" d="M-416.318,457.165c-.3,3.451-.552,6.577-.858,9.7-.2,2.072-.559,4.129-.7,6.2a13.589,13.589,0,0,0,.359,2.765l2.685-1.3a16.645,16.645,0,0,1-1.232,2.31c-.953,1.221-2.358,2.188-3.724,1.279a4.1,4.1,0,0,1-1.219-3.237c.358-4.508.934-9,1.553-13.483.209-1.508.2-2.676-1.628-3.4Z" transform="translate(-117.827 -14.231)" fill="#e01f27"/>
    <path id="Path_96" data-name="Path 96" d="M-409.652,477.28a15.734,15.734,0,0,1,.924-2.428c1.242-2.155,3.044-2.236,4.451-.185a25.051,25.051,0,0,1,1.655,3.116c.476.961.9,1.946,1.48,3.2a5.406,5.406,0,0,0,1.12-5.4,4.671,4.671,0,0,1,.039-2,1.709,1.709,0,0,1,1.147-.172,3.547,3.547,0,0,1,.613,1.925,25.446,25.446,0,0,1-6.809,14.494,4.479,4.479,0,0,1-2.378,1.169,2.5,2.5,0,0,1-1.766-.842,1.432,1.432,0,0,1,.08-1.4,2.48,2.48,0,0,1,1.71-.234c2.462.522,4.986-1.637,4.268-4.125a33.891,33.891,0,0,0-3.415-7.643c-1.255-2.139-1.841.136-2.62.821Z" transform="translate(-123.032 -21.522)" fill="#e01f27"/>
    <path id="Path_97" data-name="Path 97" d="M-433.782,482.479c-2.144,2.922-4.693,3.993-7.15,3.077a4.658,4.658,0,0,1-2.351-2.041c-2.1-4.156,1.846-10.389,6.48-10.212a3.5,3.5,0,0,1,2.718,1.546,3.6,3.6,0,0,1-1.1,2.961,10.286,10.286,0,0,1-3.364,1.629c-1.084.43-2.728.186-2.142,2.256a3.039,3.039,0,0,0,3.68,2.341A21.849,21.849,0,0,0-433.782,482.479Zm-7.307-3.859c2.418.292,3.622-.455,4.283-1.822.287-.593-.076-1.5-.143-2.265-.736.144-1.761.039-2.147.486A20.4,20.4,0,0,0-441.089,478.62Z" transform="translate(-107.456 -21.576)" fill="#e01f27"/>
    <path id="Path_98" data-name="Path 98" d="M-240.31,483.03a5.893,5.893,0,0,1-6.621,2.463,4.332,4.332,0,0,1-2.588-2.114c-1.822-3.811,1.358-9.522,5.535-10.15,1.454-.219,3.094-.335,3.769,1.341.716,1.779-.438,2.946-1.889,3.724-.949.509-2.049.731-3.016,1.213a6.112,6.112,0,0,0-1.84,1.336c.517,1.062,1.137,2.658,1.991,2.838C-243.579,483.973-241.99,483.316-240.31,483.03Zm-6.9-5.016.7.682a3.463,3.463,0,0,0,3.729-2.56,1.853,1.853,0,0,0-.455-1.65,1.7,1.7,0,0,0-1.673.113A32.81,32.81,0,0,0-247.214,478.014Z" transform="translate(-195.7 -21.488)" fill="#e01f27"/>
    <path id="Path_99" data-name="Path 99" d="M-281.579,482.806c-1.941,2.648-4.219,3.376-6.732,2.8a4.633,4.633,0,0,1-2.757-2.252c-1.986-4.133,1.869-10.149,6.429-10.032a3.865,3.865,0,0,1,2.918,1.688c.308.637-.53,2.2-1.284,2.88a11.064,11.064,0,0,1-3.4,1.592c-.94.37-2.306.165-2.068,1.867s1.226,2.747,2.846,2.706C-284.457,484.029-283.306,483.37-281.579,482.806Zm-7.344-4.116c2.635.179,3.885-.595,4.5-2.154a2.1,2.1,0,0,0-.288-1.909,1.888,1.888,0,0,0-1.871.191A30.5,30.5,0,0,0-288.923,478.69Z" transform="translate(-176.778 -21.588)" fill="#e01f27"/>
    <path id="Path_100" data-name="Path 100" d="M-192.395,479.617c-.653.9-1.133,2.069-2.005,2.626a4.506,4.506,0,0,1-3.212.607c-.558-.145-1.059-1.607-1.083-2.489-.045-1.707.361-3.422.4-5.138a29.564,29.564,0,0,0-.448-3.887l4.151-3.671v2.944l3.2,1.1a7.227,7.227,0,0,1-1.9.63c-1.476-.086-1.865.825-2.028,2a22.93,22.93,0,0,0-.395,3.236,16.066,16.066,0,0,0,.481,2.77l2.354-.968Z" transform="translate(-219.056 -19.011)" fill="#e01f27"/>
    <path id="Path_101" data-name="Path 101" d="M-463.67,477.024c.273-2.055,1.117-3.416,2.822-3.523.688-.043,1.455,1.18,1.964,1.63l4.407-1.621c.114.872.228,1.743.384,2.937-1.3-.41-2.447-1.083-2.762-.807a5,5,0,0,0-1.31,2.567c-.447,1.94-.574,3.958-1.088,5.875-.164.611-1.135,1.006-1.737,1.5-.3-.635-.889-1.288-.851-1.9.117-1.895.552-3.769.69-5.664.045-.615-.449-1.269-.7-1.906Z" transform="translate(-98.438 -21.668)" fill="#e01f27"/>
    <path id="Path_102" data-name="Path 102" d="M-260.455,476.7l-2.8-1.667c-.529,1.99-1.027,3.674-1.414,5.383-.278,1.229-.273,2.536-.656,3.723-.19.589-.97.989-1.482,1.473-.377-.571-1.091-1.154-1.071-1.71.07-1.977.5-3.941.583-5.919.081-1.9-.187-2-2.265-1.349a2.82,2.82,0,0,1,2.443-3.071c.734-.076,1.6,1.161,2.753,2.075.136-.188.433-1,1-1.285a13.135,13.135,0,0,1,2.91-.736Z" transform="translate(-186.815 -21.695)" fill="#e01f27"/>
    <path id="Path_103" data-name="Path 103" d="M-327.737,473.066c-.581,3.648-1.071,6.726-1.626,10.212a13.658,13.658,0,0,0,1.671-.581,6.238,6.238,0,0,0,.924-.784c.07.412.214.7.128.857-.294.552-.552,1.293-1.038,1.541a25.033,25.033,0,0,1-3.375,1.2,10.232,10.232,0,0,1-.979-3.126c.038-1.787.612-3.558.729-5.351a15.984,15.984,0,0,0-.593-3.452Z" transform="translate(-158.372 -21.47)" fill="#e01f27"/>
    <path id="Path_104" data-name="Path 104" d="M-559.593,439.262a2.107,2.107,0,0,1,2.147-2.086,2.166,2.166,0,0,1,2.1,2.161,2.157,2.157,0,0,1-2.227,2.136A2.106,2.106,0,0,1-559.593,439.262Zm1.076,1.362a1.444,1.444,0,0,0,2.167-.014c.75-.962.786-1.776.11-2.493a1.572,1.572,0,0,0-2.279-.093A1.537,1.537,0,0,0-558.516,440.624Z" transform="translate(-54.765 -5.129)" fill="#e01f27"/>
    <path id="Path_105" data-name="Path 105" d="M-174.445,468.432a4.209,4.209,0,0,1-4,4.262,4.276,4.276,0,0,1-3.991-4.3,4.1,4.1,0,0,1,4.03-4.188A4.046,4.046,0,0,1-174.445,468.432Zm-5.9,2.288c1.275,1.674,2.536,1.779,3.778-.035,2.064-1.119,1.568-2.777.729-4.3-.891-1.615-2.515-1.732-4.492-.555C-182.105,467.892-182.108,468.95-180.346,470.72Z" transform="translate(-226.479 -17.434)" fill="#e01f27"/>
    <path id="Path_106" data-name="Path 106" d="M-327.133,464.533c-1.884-2.177-1.883-2.189.36-4.008C-324.853,462.4-324.857,462.485-327.133,464.533Z" transform="translate(-159.978 -15.76)" fill="#e01f27"/>
    <path id="Path_107" data-name="Path 107" d="M-566.7,456.924c1.315-2.22,1.315-2.22-.065-3.882.219-.243.435-.514.682-.753.914-.886,1.471-.76,1.949.429C-563.46,454.4-565.013,456.948-566.7,456.924Z" transform="translate(-51.499 -11.748)" fill="#e01f27"/>
    <path id="Path_108" data-name="Path 108" d="M-557.653,441.337V438.71a4.539,4.539,0,0,1,1.259.112,1.614,1.614,0,0,1,.684.7c-.523.716.045,1.239.256,1.82l-1.4-1.01Zm1.487-1.628.033-.336a6.8,6.8,0,0,0-.779-.114,3.308,3.308,0,0,0-.082.449Z" transform="translate(-55.648 -5.828)" fill="#e01f27"/>
    <path id="Path_109" data-name="Path 109" d="M-178.691,472.087q0-2.483-.007-4.966a6.22,6.22,0,0,1,2.358.258,3.2,3.2,0,0,1,1.244,1.842,15.213,15.213,0,0,1,.28,2.871l-2.295-1.638Zm3.027-3.225c-.536-.343-.778-.621-1.014-.616-.275,0-.546.257-.818.4.2.217.369.569.6.617C-176.635,469.318-176.319,469.094-175.665,468.862Z" transform="translate(-228.183 -18.763)" fill="#e01f27"/>
  </g>
</svg>
