<svg xmlns="http://www.w3.org/2000/svg" width="44.081" height="44.159" viewBox="0 0 44.081 44.159">
  <path id="Icon_feather-phone-call" data-name="Icon feather-phone-call" d="M28.514,9.336a9.8,9.8,0,0,1,7.738,7.738M28.514,1.5A17.632,17.632,0,0,1,44.089,17.055M42.13,32.688v5.877a3.918,3.918,0,0,1-4.271,3.918,38.77,38.77,0,0,1-16.907-6.014A38.2,38.2,0,0,1,9.2,24.715,38.77,38.77,0,0,1,3.184,7.73a3.918,3.918,0,0,1,3.9-4.271h5.877a3.918,3.918,0,0,1,3.918,3.37,25.154,25.154,0,0,0,1.371,5.5,3.918,3.918,0,0,1-.882,4.134l-2.488,2.488A31.345,31.345,0,0,0,26.634,30.71l2.488-2.488a3.918,3.918,0,0,1,4.134-.882,25.154,25.154,0,0,0,5.5,1.371A3.918,3.918,0,0,1,42.13,32.688Z" transform="translate(-1.666 0.156)" fill="none" stroke="#62bcfc" stroke-linecap="round" stroke-linejoin="round" stroke-width="3"/>
</svg>
