<svg xmlns="http://www.w3.org/2000/svg" width="38.558" height="267.615" viewBox="0 0 38.558 267.615">
  <path id="Subtraction_17" data-name="Subtraction 17" d="M0,267.615H0v-2.787H19.887V154.787a32.334,32.334,0,0,1,1.618-8.333,16.5,16.5,0,0,1,5.1-7.774l7.675-6.889L26.6,124.9a16.589,16.589,0,0,1-5.116-7.654,31.051,31.051,0,0,1-1.6-8.453V2.834H0V0H24.246l.095.047a13.767,13.767,0,0,1,.116,1.926V102.119a38.545,38.545,0,0,0,.915,7.635A29.4,29.4,0,0,0,35.58,126.7a18.842,18.842,0,0,0,2.978,2v5.6a22.7,22.7,0,0,0-9.193,8.88,35.444,35.444,0,0,0-4.908,18.283V265.688a13.611,13.611,0,0,1-.1,1.8Z" fill="#8491ff"/>
</svg>
